# xmcd
# 
# Track frame offsets:
#     150
#     15220
#     27045
#     46924
#     59609
#     73774
#     87952
#     97144
#     110652
#     123990
#     139066
#     152904
# 
# Disc length: 2256
# 
# Revision: 8
# Processed by: cddbd v1.5.2PL0 Copyright (c) Steve Scherf et al.
# Submitted via: fre:ac v1.0.31
# 
DISCID=9f08ce0c
DTITLE=Mick Hucknall - American Soul
DYEAR=2012
DGENRE=Rock/Pop
TTITLE0=That's How Strong My Love Is
TTITLE1=Turn Back The Hands Of Time
TTITLE2=I'd Rather Go Blind
TTITLE3=Lonely Avenue
TTITLE4=I Only Have Eyes For You
TTITLE5=Tell It Like It Is
TTITLE6=Baby, What You Want Me To Do
TTITLE7=The Girl That Radiates That Charm
TTITLE8=Let Me Down Easy
TTITLE9=Don't Let Me Be Misunderstood
TTITLE10=It's Impossible
TTITLE11=Hope There's Someone
EXTD=YEAR: 2012
EXTT0=
EXTT1=
EXTT2=
EXTT3=
EXTT4=
EXTT5=
EXTT6=
EXTT7=
EXTT8=
EXTT9=
EXTT10=
EXTT11=
PLAYORDER=
